<svg width="40" height="40" viewBox="0 0 48 48" xmlns="http://www.w3.org/2000/svg"><path fill-rule="evenodd" clip-rule="evenodd" d="M14.5486 21.4051C14.5486 19.9137 15.7576 18.7047 17.249 18.7047H30.7511C32.2425 18.7047 33.4515 19.9137 33.4515 21.4051V26.8059C33.4515 28.2973 32.2425 29.5063 30.7511 29.5063H17.249C15.7576 29.5063 14.5486 28.2973 14.5486 26.8059V21.4051ZM20.4895 24.1055C20.4895 25.0003 19.7641 25.7257 18.8693 25.7257C17.9744 25.7257 17.249 25.0003 17.249 24.1055C17.249 23.2107 17.9744 22.4852 18.8693 22.4852C19.7641 22.4852 20.4895 23.2107 20.4895 24.1055ZM29.1309 25.7257C30.0257 25.7257 30.7511 25.0003 30.7511 24.1055C30.7511 23.2107 30.0257 22.4852 29.1309 22.4852C28.236 22.4852 27.5106 23.2107 27.5106 24.1055C27.5106 25.0003 28.236 25.7257 29.1309 25.7257Z" fill="#fff"></path><path d="M28.2332 2.57065C28.5397 1.71524 29.806 1.93527 29.806 2.84393V7.633H37.7722C41.9481 7.633 45.3334 11.0183 45.3334 15.1942V33.017C45.3334 37.1929 41.9481 40.5782 37.7722 40.5782H28.8399C28.0902 40.5782 27.5685 39.8331 27.8249 39.1285L29.3664 34.8932C29.5994 34.2531 30.2078 33.8271 30.889 33.8271H35.0718C36.8615 33.8271 38.3123 32.3763 38.3123 30.5866V27.6161H39.1224C39.5698 27.6161 39.9326 27.2534 39.9326 26.806V21.4052C39.9326 20.9578 39.5698 20.595 39.1224 20.595H38.3123V17.6246C38.3123 15.8349 36.8615 14.3841 35.0718 14.3841L25.5345 14.3842C24.787 14.3842 24.2655 13.6433 24.5176 12.9397L28.2332 2.57065Z" fill="#4768DD"></path><path d="M10.2279 7.633H19.1474C19.8971 7.633 20.4188 8.3781 20.1624 9.08262L18.6208 13.318C18.3879 13.958 17.7794 14.3841 17.0983 14.3841H12.9284C11.1387 14.3841 9.68785 15.8349 9.68785 17.6246V20.595H8.87772C8.43033 20.595 8.06759 20.9578 8.06759 21.4052V26.806C8.06759 27.2534 8.43033 27.6161 8.87772 27.6161H9.68785V30.5866C9.68785 32.3763 11.1387 33.8271 12.9284 33.8271L22.4562 33.8271C23.2063 33.8271 23.728 34.5729 23.4709 35.2775L19.7654 45.4337C19.4548 46.2849 18.1942 46.0621 18.1942 45.1561V40.5782H10.2279C6.05203 40.5782 2.66675 37.1929 2.66675 33.017V15.1942C2.66675 11.0183 6.05203 7.633 10.2279 7.633Z" fill="#4768DD"></path></svg>